<svg width="20" height="20" viewBox="0 0 20 20" fill="none" xmlns="http://www.w3.org/2000/svg">
<path d="M11.6455 4.33259C11.7729 4.72673 12.1956 4.943 12.5898 4.81564C12.9839 4.68828 13.2002 4.26551 13.0728 3.87136L11.6455 4.33259ZM11.3321 8.22301C11.6961 8.02522 11.8308 7.56985 11.633 7.20591C11.4352 6.84197 10.9798 6.70727 10.6159 6.90506L11.3321 8.22301ZM3.33325 10.4997C2.91904 10.4997 2.58325 10.8355 2.58325 11.2497C2.58325 11.6639 2.91904 11.9997 3.33325 11.9997V10.4997ZM6.03506 11.411L5.70839 12.0861L5.7084 12.0861L6.03506 11.411ZM7.73671 12.2343L8.06338 11.5592L8.06337 11.5592L7.73671 12.2343ZM10.7781 13.9388L10.5789 13.2157L10.5782 13.2159L10.7781 13.9388ZM8.66067 14.5243L8.86049 15.2471L8.86056 15.2471L8.66067 14.5243ZM7.52075 14.4217L7.84747 13.7466L7.84739 13.7465L7.52075 14.4217ZM6.02831 12.8665C5.65545 12.6861 5.20694 12.8421 5.02654 13.215C4.84614 13.5878 5.00217 14.0363 5.37504 14.2167L6.02831 12.8665ZM10.613 12.6161C10.217 12.7377 9.99468 13.1573 10.1163 13.5533C10.238 13.9492 10.6576 14.1716 11.0535 14.0499L10.613 12.6161ZM14.6606 12.1571L14.8809 12.874L14.8837 12.8731L14.6606 12.1571ZM16.4975 12.7849L15.8894 13.224L15.8895 13.2241L16.4975 12.7849ZM16.232 14.0782L16.6068 14.7278L16.6069 14.7278L16.232 14.0782ZM9.969 17.6918L9.59419 17.0421L9.59418 17.0421L9.969 17.6918ZM8.66258 17.8477L8.87595 17.1287L8.87594 17.1287L8.66258 17.8477ZM3.54661 15.5472C3.14951 15.4294 2.73207 15.6558 2.61424 16.0529C2.49641 16.45 2.72279 16.8674 3.11989 16.9853L3.54661 15.5472ZM15.9166 6.66634C15.9166 7.86291 14.9465 8.83301 13.7499 8.83301V10.333C15.775 10.333 17.4166 8.69132 17.4166 6.66634H15.9166ZM13.7499 8.83301C12.5533 8.83301 11.5833 7.86291 11.5833 6.66634H10.0833C10.0833 8.69132 11.7249 10.333 13.7499 10.333V8.83301ZM11.5833 6.66634C11.5833 5.46972 12.5533 4.49967 13.7499 4.49967V2.99967C11.7249 2.99967 10.0833 4.64129 10.0833 6.66634H11.5833ZM13.7499 4.49967C14.9465 4.49967 15.9166 5.46972 15.9166 6.66634H17.4166C17.4166 4.64129 15.775 2.99967 13.7499 2.99967V4.49967ZM13.0728 3.87136C12.5971 2.39924 11.2156 1.33301 9.58325 1.33301V2.83301C10.546 2.83301 11.364 3.46152 11.6455 4.33259L13.0728 3.87136ZM9.58325 1.33301C7.55821 1.33301 5.91659 2.97463 5.91659 4.99967H7.41658C7.41658 3.80305 8.38663 2.83301 9.58325 2.83301V1.33301ZM5.91659 4.99967C5.91659 7.02465 7.5582 8.66634 9.58325 8.66634V7.16634C8.38664 7.16634 7.41658 6.19625 7.41658 4.99967H5.91659ZM9.58325 8.66634C10.215 8.66634 10.8116 8.50591 11.3321 8.22301L10.6159 6.90506C10.3096 7.07151 9.95862 7.16634 9.58325 7.16634V8.66634ZM3.33325 11.9997H5.32894V10.4997H3.33325V11.9997ZM5.32894 11.9997C5.46163 11.9997 5.59164 12.0296 5.70839 12.0861L6.36173 10.7359C6.04 10.5802 5.68649 10.4997 5.32894 10.4997V11.9997ZM5.7084 12.0861L7.41005 12.9095L8.06337 11.5592L6.36172 10.7359L5.7084 12.0861ZM7.41004 12.9095C7.73192 13.0652 8.08545 13.1456 8.44284 13.1456V11.6456C8.30997 11.6456 8.17998 11.6156 8.06338 11.5592L7.41004 12.9095ZM8.44284 13.1456H9.31167V11.6456H8.44284V13.1456ZM9.31167 13.1456C9.7612 13.1456 10.0833 13.4921 10.0833 13.868H11.5833C11.5833 12.6176 10.5428 11.6456 9.31167 11.6456V13.1456ZM10.0833 13.868C10.0833 13.5496 10.2996 13.2926 10.5789 13.2157L10.9773 14.6618C11.3219 14.5669 11.5833 14.2521 11.5833 13.868H10.0833ZM10.5782 13.2159L8.46078 13.8014L8.86056 15.2471L10.978 14.6616L10.5782 13.2159ZM8.46085 13.8014C8.25568 13.8581 8.03616 13.8379 7.84747 13.7466L7.19403 15.0968C7.71201 15.3475 8.30595 15.4004 8.86049 15.2471L8.46085 13.8014ZM7.84739 13.7465L6.02831 12.8665L5.37504 14.2167L7.19411 15.0968L7.84739 13.7465ZM11.0535 14.0499L14.8809 12.874L14.4403 11.4402L10.613 12.6161L11.0535 14.0499ZM14.8837 12.8731C15.2454 12.7604 15.6476 12.8891 15.8894 13.224L17.1056 12.3459C16.4974 11.5036 15.4327 11.1309 14.4375 11.441L14.8837 12.8731ZM15.8895 13.2241C15.9127 13.2562 15.9224 13.2985 15.9132 13.3434C15.904 13.3881 15.8808 13.4149 15.8571 13.4286L16.6069 14.7278C17.4503 14.241 17.6657 13.1213 17.1055 12.3458L15.8895 13.2241ZM15.8572 13.4285L9.59419 17.0421L10.3438 18.3414L16.6068 14.7278L15.8572 13.4285ZM9.59418 17.0421C9.37281 17.1699 9.11534 17.1997 8.87595 17.1287L8.44922 18.5667C9.08599 18.7556 9.76853 18.6733 10.3438 18.3414L9.59418 17.0421ZM8.87594 17.1287L3.54661 15.5472L3.11989 16.9853L8.44923 18.5667L8.87594 17.1287Z" fill="#A3A3A3"/>
</svg>
