<svg width="20" height="20" viewBox="0 0 20 20" fill="none" xmlns="http://www.w3.org/2000/svg">
  <path d="M17.2 2L11.3 7L12.5 4.2L17.2 2Z" fill="white"/>
  <path d="M2.80005 2L8.60005 7.1L7.50005 4.2L2.80005 2Z" fill="white"/>
  <path d="M15 13.3L13.3 15.9L16.9 16.9L17.9 13.4L15 13.3Z" fill="white"/>
  <path d="M2.09998 13.4L3.09998 16.9L6.69998 15.9L4.99998 13.3L2.09998 13.4Z" fill="white"/>
  <path d="M6.5 8.89999L5.5 10.4L9.1 10.6L9 6.69999L6.5 8.89999Z" fill="white"/>
  <path d="M13.5 8.89999L11 6.59999L11 10.6L14.6 10.4L13.5 8.89999Z" fill="white"/>
  <path d="M6.69995 15.9L8.89995 14.9L7.09995 13.4L6.69995 15.9Z" fill="white"/>
  <path d="M11.1 14.9L13.3 15.9L12.9 13.4L11.1 14.9Z" fill="white"/>
</svg> 