<svg width="20" height="20" viewBox="0 0 20 20" fill="none" xmlns="http://www.w3.org/2000/svg">
<path d="M7.50008 7.50033L4.16675 4.16699M13.3334 10.0003H18.3334M13.3334 10.0003C13.3334 11.8413 11.841 13.3337 10.0001 13.3337M13.3334 10.0003C13.3334 8.15938 11.841 6.66699 10.0001 6.66699C8.15913 6.66699 6.66675 8.15938 6.66675 10.0003C6.66675 11.8413 8.15913 13.3337 10.0001 13.3337M18.3334 10.0003C18.3334 14.6027 14.6025 18.3337 10.0001 18.3337M18.3334 10.0003C18.3334 5.39795 14.6025 1.66699 10.0001 1.66699C5.39771 1.66699 1.66675 5.39795 1.66675 10.0003C1.66675 14.6027 5.39771 18.3337 10.0001 18.3337M10.0001 13.3337V18.3337" stroke="#A3A3A3" stroke-width="1.5" stroke-linecap="round"/>
</svg>
