<svg width="20" height="20" viewBox="0 0 20 20" fill="none" xmlns="http://www.w3.org/2000/svg">
<path d="M10.7163 13.902L10.3795 13.2319L10.3795 13.2319L10.7163 13.902ZM13.5415 12.482L13.2047 11.8119L13.2047 11.8119L13.5415 12.482ZM9.28383 13.902L8.94702 14.5721L8.94702 14.5721L9.28383 13.902ZM6.45864 12.482L6.79545 11.8119L6.79545 11.8119L6.45864 12.482ZM13.5415 3.35196L13.2047 4.02208L13.2047 4.02208L13.5415 3.35196ZM10.7163 1.93198L11.0531 1.26187L11.0531 1.26186L10.7163 1.93198ZM9.28383 1.93198L8.94704 1.26186L8.94702 1.26187L9.28383 1.93198ZM6.45864 3.35196L6.12183 2.68184L6.12183 2.68184L6.45864 3.35196ZM13.5415 6.23203L13.2047 5.56191L13.2047 5.56191L13.5415 6.23203ZM10.7163 7.652L11.0531 8.32213L11.0531 8.32212L10.7163 7.652ZM6.45864 6.23203L6.12183 6.90214L6.12183 6.90214L6.45864 6.23203ZM9.28383 7.652L8.94702 8.32212L8.94704 8.32213L9.28383 7.652ZM4.16675 16.542C3.75253 16.542 3.41675 16.8778 3.41675 17.292C3.41675 17.7062 3.75253 18.042 4.16675 18.042V16.542ZM15.8334 18.042C16.2476 18.042 16.5834 17.7062 16.5834 17.292C16.5834 16.8778 16.2476 16.542 15.8334 16.542V18.042ZM10.0001 14.917C10.4089 14.917 10.7695 14.7147 11.0532 14.5721L10.3795 13.2319C10.1921 13.3261 10.0946 13.3744 10.0211 13.4035C9.96137 13.4271 9.96768 13.417 10.0001 13.417V14.917ZM11.0531 14.5721L13.8783 13.1521L13.2047 11.8119L10.3795 13.2319L11.0531 14.5721ZM13.8783 13.1521C14.4805 12.8494 15.0101 12.5855 15.3787 12.3269C15.7436 12.0709 16.1667 11.6724 16.1667 11.042H14.6667C14.6667 10.9091 14.7774 10.9164 14.5172 11.099C14.2607 11.2789 13.8526 11.4862 13.2047 11.8119L13.8783 13.1521ZM16.1667 11.042V4.79199H14.6667V11.042H16.1667ZM10.0001 13.417C10.0325 13.417 10.0388 13.4271 9.97909 13.4035C9.90564 13.3744 9.80805 13.3261 9.62064 13.2319L8.94702 14.5721C9.23071 14.7147 9.59128 14.917 10.0001 14.917V13.417ZM9.62065 13.2319L6.79545 11.8119L6.12183 13.1521L8.94702 14.5721L9.62065 13.2319ZM6.79545 11.8119C6.14753 11.4862 5.73946 11.2789 5.48297 11.099C5.22278 10.9164 5.33342 10.9091 5.33342 11.042H3.83342C3.83342 11.6724 4.25659 12.0709 4.62147 12.3269C4.99006 12.5855 5.5196 12.8494 6.12183 13.1521L6.79545 11.8119ZM5.33342 11.042V4.79199H3.83342V11.042H5.33342ZM10.7501 14.167V7.91699H9.25008V14.167H10.7501ZM16.1667 4.79199C16.1667 4.16156 15.7436 3.76308 15.3787 3.50707C15.0101 3.24847 14.4806 2.98453 13.8783 2.68184L13.2047 4.02208C13.8526 4.34773 14.2607 4.55505 14.5172 4.735C14.7774 4.91755 14.6667 4.92491 14.6667 4.79199H16.1667ZM13.8783 2.68184L11.0531 1.26187L10.3795 2.6021L13.2047 4.02208L13.8783 2.68184ZM11.0531 1.26186C10.7694 1.11928 10.4089 0.916992 10.0001 0.916992V2.41699C9.96767 2.41699 9.96132 2.40685 10.0211 2.43052C10.0945 2.45962 10.1921 2.50792 10.3795 2.60211L11.0531 1.26186ZM10.0001 0.916992C9.59128 0.916992 9.23072 1.11928 8.94704 1.26186L9.62063 2.60211C9.80803 2.50792 9.90563 2.45962 9.97908 2.43052C10.0388 2.40685 10.0325 2.41699 10.0001 2.41699V0.916992ZM8.94702 1.26187L6.12183 2.68184L6.79545 4.02208L9.62064 2.6021L8.94702 1.26187ZM6.12183 2.68184C5.51959 2.98453 4.99006 3.24847 4.62147 3.50707C4.25657 3.76308 3.83342 4.16156 3.83342 4.79199H5.33342C5.33342 4.9249 5.2228 4.91754 5.48298 4.735C5.73946 4.55505 6.14754 4.34773 6.79545 4.02208L6.12183 2.68184ZM14.6667 4.79199C14.6667 4.65908 14.7774 4.66644 14.5172 4.84898C14.2607 5.02893 13.8526 5.23626 13.2047 5.56191L13.8783 6.90215C14.4806 6.59945 15.0101 6.33552 15.3787 6.07691C15.7436 5.82091 16.1667 5.42243 16.1667 4.79199H14.6667ZM13.2047 5.56191L10.3795 6.98188L11.0531 8.32212L13.8783 6.90214L13.2047 5.56191ZM10.3795 6.98187C10.1921 7.07606 10.0945 7.12436 10.0211 7.15346C9.96132 7.17713 9.96766 7.16699 10.0001 7.16699V8.66699C10.4089 8.66699 10.7694 8.4647 11.0531 8.32213L10.3795 6.98187ZM3.83342 4.79199C3.83342 5.42242 4.25657 5.8209 4.62147 6.07691C4.99006 6.33551 5.51959 6.59945 6.12183 6.90214L6.79545 5.56191C6.14754 5.23626 5.73946 5.02894 5.48298 4.84899C5.2228 4.66644 5.33342 4.65908 5.33342 4.79199H3.83342ZM6.12183 6.90214L8.94702 8.32212L9.62064 6.98188L6.79545 5.56191L6.12183 6.90214ZM8.94704 8.32213C9.23072 8.4647 9.59128 8.66699 10.0001 8.66699V7.16699C10.0325 7.16699 10.0388 7.17713 9.97909 7.15346C9.90563 7.12436 9.80803 7.07606 9.62063 6.98187L8.94704 8.32213ZM9.08342 17.292C9.08342 17.1309 9.21396 17.0003 9.37508 17.0003V15.5003C8.38553 15.5003 7.58342 16.3024 7.58342 17.292H9.08342ZM9.37508 17.0003H10.6251V15.5003H9.37508V17.0003ZM10.6251 17.0003C10.7862 17.0003 10.9167 17.1309 10.9167 17.292H12.4167C12.4167 16.3024 11.6146 15.5003 10.6251 15.5003V17.0003ZM7.58342 17.292C7.58342 18.2815 8.38554 19.0837 9.37508 19.0837V17.5837C9.21396 17.5837 9.08342 17.4531 9.08342 17.292H7.58342ZM9.37508 19.0837H10.6251V17.5837H9.37508V19.0837ZM10.6251 19.0837C11.6146 19.0837 12.4167 18.2815 12.4167 17.292H10.9167C10.9167 17.4531 10.7862 17.5837 10.6251 17.5837V19.0837ZM8.33342 16.542H4.16675V18.042H8.33342V16.542ZM11.6667 18.042H15.8334V16.542H11.6667V18.042Z" fill="#A3A3A3"/>
</svg>
