<svg width="20" height="20" viewBox="0 0 20 20" fill="none" xmlns="http://www.w3.org/2000/svg">
<path d="M5.20817 9.99967C5.20817 7.35331 7.35347 5.20801 9.99987 5.20801C12.6462 5.20801 14.7915 7.35331 14.7915 9.99967C14.7915 12.646 12.6462 14.7913 9.99987 14.7913C7.35347 14.7913 5.20817 12.646 5.20817 9.99967Z" fill="white"/>
<path fill-rule="evenodd" clip-rule="evenodd" d="M18.297 1.70208C18.6225 2.02752 18.6225 2.55516 18.297 2.8806L16.458 4.71968C16.582 4.70572 16.705 4.6909 16.8256 4.67638C16.9536 4.66097 17.0789 4.64591 17.1992 4.63256C17.6567 4.58182 18.0686 4.91152 18.1194 5.36895C18.1701 5.82638 17.8404 6.23833 17.383 6.28907C17.2923 6.29912 17.1878 6.31172 17.0736 6.32549C16.699 6.37067 16.2207 6.42833 15.79 6.44927C15.5058 6.4631 15.1991 6.46394 14.9202 6.4264C14.6822 6.39436 14.2794 6.31372 13.9824 6.01674C13.6854 5.71977 13.6048 5.31695 13.5727 5.07887C13.5352 4.79996 13.536 4.49332 13.5499 4.20911C13.5708 3.77837 13.6285 3.30016 13.6736 2.9255C13.6874 2.81134 13.7 2.7068 13.71 2.61615C13.7608 2.15872 14.1727 1.82902 14.6302 1.87975C15.0876 1.93049 15.4173 2.34244 15.3665 2.79987C15.3532 2.92028 15.3381 3.04547 15.3227 3.1735C15.3082 3.29409 15.2934 3.41719 15.2795 3.54117L17.1185 1.70208C17.444 1.37665 17.9716 1.37665 18.297 1.70208Z" fill="white"/>
<path fill-rule="evenodd" clip-rule="evenodd" d="M1.70184 1.70208C1.37641 2.02752 1.37641 2.55516 1.70184 2.8806L3.54093 4.71968C3.41695 4.70572 3.29385 4.6909 3.17325 4.67638C3.04523 4.66097 2.92004 4.64591 2.79962 4.63256C2.34219 4.58182 1.93024 4.91152 1.87951 5.36895C1.82877 5.82638 2.15846 6.23833 2.6159 6.28907C2.70656 6.29912 2.8111 6.31172 2.92526 6.32549C3.29991 6.37067 3.77813 6.42833 4.20886 6.44927C4.49308 6.4631 4.79971 6.46394 5.07862 6.4264C5.3167 6.39436 5.71952 6.31372 6.01649 6.01674C6.31346 5.71977 6.39411 5.31695 6.42616 5.07887C6.46369 4.79996 6.46285 4.49332 6.44903 4.20911C6.42809 3.77837 6.37042 3.30016 6.32525 2.9255C6.31148 2.81134 6.29887 2.7068 6.28882 2.61615C6.23809 2.15872 5.82614 1.82902 5.36871 1.87975C4.91127 1.93049 4.58158 2.34244 4.63231 2.79987C4.64566 2.92028 4.66073 3.04547 4.67614 3.1735C4.69066 3.29409 4.70546 3.41719 4.71944 3.54117L2.88035 1.70208C2.55491 1.37665 2.02727 1.37665 1.70184 1.70208Z" fill="white"/>
<path fill-rule="evenodd" clip-rule="evenodd" d="M18.2972 18.2973C18.6227 17.9718 18.6227 17.4442 18.2972 17.1188L16.4581 15.2797C16.5821 15.2937 16.7052 15.3084 16.8258 15.323C16.9539 15.3383 17.079 15.3534 17.1995 15.3668C17.6569 15.4175 18.0688 15.0878 18.1195 14.6304C18.1703 14.173 17.8406 13.761 17.3832 13.7103C17.2925 13.7003 17.188 13.6877 17.0738 13.6738C16.6991 13.6287 16.221 13.571 15.7902 13.5501C15.506 13.5363 15.1994 13.5354 14.9205 13.5729C14.6824 13.605 14.2795 13.6857 13.9825 13.9826C13.6856 14.2796 13.605 14.6824 13.573 14.9205C13.5354 15.1994 13.5362 15.506 13.55 15.7903C13.571 16.221 13.6286 16.6992 13.6738 17.0738C13.6876 17.188 13.7002 17.2926 13.7103 17.3832C13.761 17.8407 14.173 18.1703 14.6304 18.1196C15.0878 18.0688 15.4175 17.6569 15.3668 17.1995C15.3534 17.0791 15.3384 16.9539 15.323 16.8258C15.3085 16.7053 15.2936 16.5822 15.2796 16.4582L17.1187 18.2973C17.4441 18.6227 17.9718 18.6227 18.2972 18.2973Z" fill="white"/>
<path fill-rule="evenodd" clip-rule="evenodd" d="M1.70205 18.2973C1.37661 17.9718 1.37661 17.4442 1.70205 17.1188L3.54113 15.2797C3.41716 15.2937 3.29405 15.3084 3.17346 15.323C3.04543 15.3383 2.92024 15.3534 2.79983 15.3668C2.3424 15.4175 1.93045 15.0878 1.87971 14.6304C1.82897 14.173 2.15867 13.761 2.61611 13.7103C2.70676 13.7003 2.81131 13.6877 2.92546 13.6738C3.30011 13.6287 3.77833 13.571 4.20906 13.5501C4.49328 13.5363 4.79991 13.5354 5.07883 13.5729C5.31691 13.605 5.71972 13.6857 6.0167 13.9826C6.31367 14.2796 6.39432 14.6824 6.42636 14.9205C6.4639 15.1994 6.46306 15.506 6.44923 15.7903C6.42829 16.221 6.37062 16.6992 6.32545 17.0738C6.31168 17.188 6.29908 17.2926 6.28902 17.3832C6.23829 17.8407 5.82634 18.1703 5.36891 18.1196C4.91147 18.0688 4.58178 17.6569 4.63251 17.1995C4.64587 17.0791 4.66094 16.9539 4.67634 16.8258C4.69086 16.7053 4.70567 16.5822 4.71964 16.4582L2.88056 18.2973C2.55511 18.6227 2.02748 18.6227 1.70205 18.2973Z" fill="white"/>
</svg>
