<svg width="20" height="20" viewBox="0 0 20 20" fill="none" xmlns="http://www.w3.org/2000/svg">
<path d="M12.9166 9.99967C12.9166 11.6105 11.6108 12.9163 9.99992 12.9163C8.38909 12.9163 7.08325 11.6105 7.08325 9.99967C7.08325 8.38884 8.38909 7.08301 9.99992 7.08301C11.6108 7.08301 12.9166 8.38884 12.9166 9.99967Z" stroke="#A3A3A3" stroke-width="1.5"/>
<path d="M17.3256 7.62667C17.9975 8.78483 18.3334 9.36383 18.3334 10C18.3334 10.6362 17.9975 11.2152 17.3256 12.3733L15.7225 15.1365C15.0532 16.29 14.7187 16.8668 14.1683 17.1834C13.6181 17.5 12.9502 17.5 11.6145 17.5H8.38566C7.04993 17.5 6.38208 17.5 5.83181 17.1834C5.28153 16.8668 4.94691 16.29 4.27767 15.1365L2.6746 12.3733C2.0027 11.2152 1.66675 10.6362 1.66675 10C1.66675 9.36383 2.0027 8.78483 2.6746 7.62667L4.27767 4.86351C4.94691 3.70997 5.28153 3.1332 5.83181 2.8166C6.38208 2.5 7.04993 2.5 8.38566 2.5H11.6145C12.9502 2.5 13.6181 2.5 14.1683 2.8166C14.7187 3.1332 15.0532 3.70997 15.7225 4.86352L17.3256 7.62667Z" stroke="#A3A3A3" stroke-width="1.5"/>
</svg>
