<svg width="20" height="20" viewBox="0 0 20 20" fill="none" xmlns="http://www.w3.org/2000/svg">
<path d="M2.90061 5.07056L2.5359 4.41521L2.53589 4.41521L2.90061 5.07056ZM6.32497 3.16486L5.96026 2.50951L5.96026 2.50951L6.32497 3.16486ZM13.6752 3.16486L13.3105 3.82021L13.3105 3.82021L13.6752 3.16486ZM17.0996 5.07056L17.4643 4.41522L17.4643 4.4152L17.0996 5.07056ZM18.3039 7.65778L19.0288 7.85034L19.0288 7.85024L18.3039 7.65778ZM1.69626 7.65778L0.971407 7.85034L0.971408 7.85035L1.69626 7.65778ZM9.99667 5.08366C9.58245 5.08366 9.24667 5.41945 9.24667 5.83366C9.24667 6.24787 9.58245 6.58366 9.99667 6.58366V5.08366ZM10.0042 6.58366C10.4184 6.58366 10.7542 6.24787 10.7542 5.83366C10.7542 5.41945 10.4184 5.08366 10.0042 5.08366V6.58366ZM2.41675 7.14122C2.41675 6.74648 2.49519 6.48774 2.61199 6.29627C2.73045 6.10209 2.92667 5.91437 3.26532 5.72591L2.53589 4.41521C2.04267 4.68969 1.62196 5.03889 1.33146 5.5151C1.0393 5.99402 0.916748 6.53914 0.916748 7.14122H2.41675ZM3.26532 5.72591L6.68968 3.82021L5.96026 2.50951L2.5359 4.41521L3.26532 5.72591ZM6.68968 3.82021C7.59926 3.31402 8.2359 2.96064 8.76678 2.72875C9.28276 2.50337 9.64714 2.41699 10.0001 2.41699V0.916992C9.36944 0.916992 8.79344 1.08026 8.16636 1.35416C7.55416 1.62157 6.84504 2.01712 5.96026 2.50951L6.68968 3.82021ZM10.0001 2.41699C10.353 2.41699 10.7174 2.50337 11.2334 2.72875C11.7642 2.96064 12.4009 3.31402 13.3105 3.82021L14.0399 2.50951C13.1551 2.01712 12.446 1.62157 11.8338 1.35417C11.2067 1.08026 10.6307 0.916992 10.0001 0.916992V2.41699ZM13.3105 3.82021L16.7349 5.72591L17.4643 4.4152L14.0399 2.5095L13.3105 3.82021ZM16.7349 5.7259C17.0735 5.91436 17.2697 6.10209 17.3882 6.29627C17.505 6.48775 17.5834 6.74649 17.5834 7.14122H19.0834C19.0834 6.53914 18.9609 5.99402 18.6687 5.51511C18.3782 5.03891 17.9575 4.6897 17.4643 4.41522L16.7349 5.7259ZM17.5834 7.14122C17.5834 7.28311 17.5832 7.3647 17.5805 7.42528C17.5779 7.48181 17.5742 7.48342 17.579 7.46531L19.0288 7.85024C19.0897 7.62071 19.0834 7.36376 19.0834 7.14122H17.5834ZM17.5791 7.46521C17.5671 7.51036 17.5557 7.51975 17.5592 7.51579C17.5618 7.51277 17.5588 7.51877 17.5347 7.52954C17.468 7.55924 17.3387 7.58366 17.109 7.58366V9.08366C17.3901 9.08366 17.7808 9.06202 18.1451 8.89972C18.5542 8.71743 18.8893 8.37528 19.0288 7.85034L17.5791 7.46521ZM17.109 7.58366H2.89115V9.08366H17.109V7.58366ZM2.89115 7.58366C2.66146 7.58366 2.53217 7.55923 2.46552 7.52954C2.44137 7.51878 2.43836 7.51277 2.44101 7.51579C2.44447 7.51975 2.43312 7.51036 2.42112 7.4652L0.971408 7.85035C1.11086 8.37525 1.44592 8.71742 1.85507 8.89971C2.21938 9.06202 2.60999 9.08366 2.89115 9.08366V7.58366ZM2.42112 7.46521C2.42594 7.48336 2.42223 7.48178 2.41967 7.42526C2.41693 7.3647 2.41675 7.28311 2.41675 7.14122H0.916748C0.916748 7.36373 0.910416 7.62075 0.971407 7.85034L2.42112 7.46521ZM9.99667 6.58366H10.0042V5.08366H9.99667V6.58366ZM2.58341 8.33366V15.417H4.08341V8.33366H2.58341ZM5.91675 8.33366V15.417H7.41675V8.33366H5.91675ZM12.5834 8.33366V15.417H14.0834V8.33366H12.5834ZM15.9167 8.33366V15.417H17.4167V8.33366H15.9167ZM15.8334 14.667H4.16675V16.167H15.8334V14.667ZM4.16675 14.667C2.37183 14.667 0.916748 16.122 0.916748 17.917H2.41675C2.41675 16.9505 3.20025 16.167 4.16675 16.167V14.667ZM0.916748 17.917C0.916748 18.5612 1.43904 19.0837 2.08341 19.0837V17.5837C2.26755 17.5837 2.41675 17.7329 2.41675 17.917H0.916748ZM2.08341 19.0837H17.9167V17.5837H2.08341V19.0837ZM17.9167 19.0837C18.561 19.0837 19.0834 18.5613 19.0834 17.917H17.5834C17.5834 17.7329 17.7326 17.5837 17.9167 17.5837V19.0837ZM19.0834 17.917C19.0834 16.122 17.6284 14.667 15.8334 14.667V16.167C16.8 16.167 17.5834 16.9505 17.5834 17.917H19.0834Z" fill="#A3A3A3"/>
</svg>
